<?xml version="1.0" standalone="no"?>
<!DOCTYPE svg PUBLIC "-//W3C//DTD SVG 20010904//EN"
 "http://www.w3.org/TR/2001/REC-SVG-20010904/DTD/svg10.dtd">
<svg version="1.0" xmlns="http://www.w3.org/2000/svg"
 width="512.000000pt" height="512.000000pt" viewBox="0 0 512.000000 512.000000"
 preserveAspectRatio="xMidYMid meet">

<g transform="translate(0.000000,512.000000) scale(0.100000,-0.100000)"
fill="#000000" stroke="none">
<path d="M2332 3749 c-17 -7 -56 -90 -86 -185 -4 -14 -21 -25 -49 -34 -23 -7
-71 -27 -107 -45 l-65 -33 -59 30 c-33 17 -78 37 -99 44 l-40 14 -144 -142
c-159 -158 -159 -158 -119 -243 49 -106 50 -118 20 -177 -15 -29 -34 -75 -44
-103 l-17 -50 -84 -32 c-131 -49 -119 -22 -119 -262 0 -155 3 -211 13 -218 6
-6 53 -25 104 -43 79 -28 92 -36 98 -59 3 -14 22 -63 42 -109 l35 -83 -36 -79
c-20 -44 -36 -91 -36 -106 0 -37 262 -304 298 -304 13 0 62 18 109 40 61 29
89 37 98 30 7 -6 54 -27 105 -48 l93 -38 34 -89 c18 -50 41 -96 50 -102 12
-10 72 -13 214 -13 230 0 209 -10 255 125 l28 84 61 22 c33 12 81 32 107 45
l46 23 85 -39 c47 -22 96 -40 109 -40 33 0 298 267 298 300 0 12 -16 59 -36
106 l-36 84 35 83 c20 45 38 94 42 109 5 21 18 31 53 44 26 9 72 27 102 38
l55 21 3 211 c2 161 -1 214 -10 221 -7 6 -54 25 -105 43 -78 27 -92 36 -98 58
-4 15 -23 64 -42 109 l-36 83 36 84 c20 47 37 95 37 107 0 14 -44 68 -132 158
-72 75 -139 140 -150 145 -13 7 -43 -2 -113 -34 l-95 -43 -68 31 c-37 17 -85
37 -106 45 -37 13 -40 17 -73 108 -19 51 -37 97 -41 100 -10 10 -396 17 -420
8z m358 -141 c7 -24 21 -66 31 -94 19 -51 20 -52 97 -79 42 -15 107 -43 144
-61 37 -19 74 -34 83 -34 8 0 51 18 94 39 l78 40 96 -97 c54 -54 97 -103 97
-110 0 -7 -16 -44 -35 -82 -19 -38 -35 -78 -35 -87 0 -10 18 -53 39 -96 21
-43 47 -107 56 -142 18 -64 18 -65 69 -84 28 -10 70 -24 94 -31 l42 -13 0
-143 0 -142 -42 -16 c-24 -9 -65 -24 -92 -33 -49 -18 -50 -19 -71 -89 -12 -40
-39 -108 -60 -153 l-39 -82 33 -72 c18 -40 35 -80 38 -89 3 -11 -24 -47 -87
-112 -51 -53 -98 -96 -104 -96 -7 0 -50 18 -95 40 l-84 41 -91 -45 c-50 -24
-117 -52 -148 -60 -55 -16 -57 -18 -76 -69 -11 -28 -25 -71 -32 -94 l-13 -43
-143 0 -142 0 -23 68 c-37 115 -41 119 -120 142 -39 12 -105 39 -147 62 l-77
40 -87 -43 -88 -43 -95 94 c-52 52 -95 99 -95 105 0 5 16 47 37 93 l36 82 -40
88 c-23 48 -49 112 -58 142 -22 69 -28 76 -73 91 -20 6 -61 20 -89 31 l-53 19
0 139 0 139 53 19 c28 11 69 25 89 31 45 15 50 21 72 96 10 33 36 97 58 141
l40 82 -40 88 -41 89 99 99 99 99 88 -40 88 -40 77 38 c43 21 110 50 150 63
l73 24 34 96 33 96 143 0 142 0 13 -42z"/>
<path d="M2351 3260 c-264 -70 -470 -273 -542 -536 -27 -98 -29 -258 -4 -359
53 -217 202 -403 400 -500 118 -57 205 -77 330 -78 126 0 211 21 335 81 81 39
109 60 185 137 153 153 214 289 223 496 4 95 1 130 -17 200 -69 277 -278 492
-545 559 -105 27 -263 26 -365 0z m147 -237 l-3 -148 -50 3 c-55 3 -165 21
-177 28 -11 7 43 110 82 159 34 43 115 105 137 105 11 0 13 -29 11 -147z m121
127 c21 -10 57 -40 79 -65 42 -48 111 -170 101 -179 -7 -7 -93 -22 -171 -30
l-58 -6 0 150 c0 82 2 150 5 150 3 0 23 -9 44 -20z m-342 -67 c-19 -26 -47
-72 -61 -101 -25 -49 -30 -53 -54 -47 -42 10 -92 33 -92 42 0 21 225 171 238
158 2 -1 -12 -25 -31 -52z m552 22 c75 -39 177 -124 164 -136 -4 -4 -32 -16
-61 -27 l-53 -20 -33 66 c-19 37 -48 84 -65 106 -47 59 -44 59 48 11z m-670
-250 c1 -2 -4 -33 -13 -68 -9 -35 -20 -98 -24 -138 l-7 -74 -113 -3 -114 -3 7
43 c11 72 35 149 67 212 50 100 48 99 126 64 37 -17 69 -32 71 -33z m945 -28
c38 -78 66 -172 66 -224 l0 -33 -109 0 -109 0 -12 96 c-6 53 -18 117 -26 142
-7 26 -12 47 -11 47 1 1 30 12 65 25 34 12 65 27 68 32 10 16 31 -10 68 -85z
m-723 -14 l120 -17 -3 -110 -3 -111 -154 -3 -154 -3 6 68 c8 103 36 205 54
199 8 -4 68 -14 134 -23z m473 -60 c8 -32 17 -86 21 -120 l6 -63 -156 0 -155
0 0 113 0 114 98 12 c54 6 111 15 128 20 35 9 39 4 58 -76z m-734 -302 c0 -44
19 -161 36 -218 5 -20 0 -25 -42 -43 -27 -11 -57 -24 -66 -30 -28 -16 -32 -13
-65 43 -36 59 -78 180 -87 250 l-6 47 115 0 115 0 0 -49z m380 -65 l0 -114
-67 -7 c-60 -6 -109 -14 -179 -30 -19 -4 -23 3 -39 63 -9 37 -19 97 -22 135
l-6 67 157 0 156 0 0 -114z m375 57 c-8 -71 -35 -196 -44 -205 -3 -3 -37 0
-76 7 -38 7 -96 16 -127 20 l-58 6 0 115 0 114 156 0 156 0 -7 -57z m297 22
c-8 -91 -63 -238 -108 -293 l-19 -23 -55 24 c-30 13 -63 26 -72 30 -15 5 -15
11 -3 58 8 28 19 94 26 146 l12 94 111 -3 111 -3 -3 -30z m-674 -417 c2 -119
0 -148 -11 -148 -26 0 -107 62 -140 108 -38 52 -91 152 -84 158 7 7 180 33
207 31 l25 -2 3 -147z m237 130 c33 -5 63 -12 68 -15 10 -6 -45 -106 -91 -162
-32 -39 -114 -101 -134 -101 -4 0 -8 68 -8 150 l0 151 53 -6 c28 -4 79 -11
112 -17z m-516 -96 c16 -32 46 -80 65 -105 20 -26 33 -47 30 -47 -36 0 -244
135 -244 159 0 9 85 49 107 50 7 1 26 -25 42 -57z m722 37 c27 -12 49 -25 49
-29 0 -24 -200 -160 -234 -160 -4 0 8 19 26 43 18 24 47 71 63 105 17 33 34
61 38 61 5 1 31 -9 58 -20z"/>
<path d="M369 3276 c-2 -2 -58 -16 -124 -30 -66 -15 -130 -29 -142 -31 -21 -5
-23 -11 -23 -64 l0 -59 65 -7 65 -7 0 -589 0 -588 -37 -10 c-21 -5 -50 -13
-65 -17 -27 -6 -28 -9 -28 -70 l0 -64 53 -1 c28 0 154 -2 279 -2 l228 -2 0 66
0 66 -62 14 -63 14 -3 693 -2 692 -68 0 c-38 0 -71 -2 -73 -4z"/>
<path d="M921 3021 c-96 -42 -176 -82 -178 -87 -5 -14 36 -124 46 -124 4 0 41
9 82 20 41 11 77 20 82 20 4 0 7 -213 7 -474 l0 -473 -77 -19 -78 -19 -3 -62
-3 -63 306 0 305 0 0 64 0 63 -80 17 -80 18 -2 596 -3 597 -75 2 c-73 1 -79
-1 -249 -76z"/>
<path d="M4510 2777 c-75 -18 -133 -50 -185 -102 l-44 -43 -11 56 c-18 91 -19
92 -50 92 -16 0 -101 -16 -189 -35 -88 -19 -162 -35 -166 -35 -3 0 -5 -28 -3
-62 l3 -63 61 -9 61 -8 7 -61 c3 -33 6 -181 6 -328 0 -303 8 -276 -87 -299
l-53 -12 0 -64 0 -64 280 0 281 0 -3 62 -3 62 -50 16 c-27 8 -56 19 -62 23
-10 6 -13 73 -13 275 0 258 1 269 23 312 12 25 37 55 55 66 66 45 188 39 237
-10 39 -39 45 -86 45 -373 l0 -272 -60 -17 -60 -17 0 -63 0 -64 275 0 275 0 0
64 c0 61 -1 64 -27 70 -16 4 -45 11 -65 17 l-36 9 -4 308 c-5 336 -9 366 -67
452 -32 48 -96 95 -150 110 -61 17 -163 20 -221 7z"/>
</g>
</svg>
