<?xml version="1.0"?><svg xmlns="http://www.w3.org/2000/svg" xmlns:xlink="http://www.w3.org/1999/xlink" version="1.1" viewBox="0 0 512 512" style="enable-background:new 0 0 512 512;" xml:space="preserve"><g id="_x31_2_Medical_Chart"><linearGradient id="SVGID_1_" gradientUnits="userSpaceOnUse" x1="69.2069" y1="474.2393" x2="442.7931" y2="100.6531"><stop offset="0" style="stop-color:#696EFF"/><stop offset="1" style="stop-color:#F8ACFF"/></linearGradient><path style="fill:url(#SVGID_1_);" d="M177.965,71.887h-66.677c-17.754,0-32.199,14.445-32.199,32.199v366.721   c0,17.754,14.445,32.198,32.199,32.198h289.424c17.754,0,32.199-14.445,32.199-32.198V104.086   c0-17.754-14.445-32.199-32.199-32.199h-67.059C328,65.344,319.75,61.392,310.74,61.392h-9.389   c0.279-2.062,0.419-4.151,0.419-6.256c0-12.732-5.332-25.022-14.629-33.715c-9.428-8.815-21.751-13.174-34.696-12.321   c-23.802,1.597-43.075,22.348-42.963,46.258c0.009,2.027,0.15,4.044,0.419,6.034h-9.024   C191.869,61.392,183.618,65.344,177.965,71.887z M400.712,81.574c12.412,0,22.512,10.1,22.512,22.512v366.721   c0,12.412-10.1,22.512-22.512,22.512H111.288c-12.412,0-22.512-10.1-22.512-22.512V104.086c0-12.412,10.1-22.512,22.512-22.512   h60.955L160.6,110.22h-21.145c-12.275,0-22.261,9.988-22.261,22.263v309.924c0,12.275,9.986,22.263,22.261,22.263h233.09   c12.275,0,22.261-9.988,22.261-22.263V132.483c0-12.275-9.986-22.263-22.261-22.263h-21.527l-11.644-28.646H400.712z    M172.842,133.745h165.934c4.891,0,9.441-2.422,12.173-6.48c1.496-2.222,2.306-4.767,2.454-7.358h19.142   c6.934,0,12.575,5.641,12.575,12.576v309.924c0,6.935-5.641,12.576-12.575,12.576h-233.09c-6.934,0-12.575-5.641-12.575-12.576   V132.483c0-6.935,5.641-12.576,12.575-12.576h18.759c0.148,2.591,0.958,5.135,2.454,7.358   C163.4,131.323,167.95,133.745,172.842,133.745z M215.833,71.079c1.515,0,2.942-0.709,3.858-1.916   c0.916-1.208,1.214-2.773,0.807-4.232c-0.867-3.098-1.313-6.335-1.329-9.617c-0.088-18.892,15.13-35.289,33.926-36.55   c10.241-0.687,19.98,2.768,27.429,9.732c7.454,6.97,11.559,16.431,11.559,26.639c0,3.347-0.446,6.644-1.327,9.795   c-0.408,1.458-0.11,3.024,0.806,4.232c0.914,1.206,2.343,1.916,3.858,1.916h15.32c8.452,0,15.968,5.058,19.149,12.887   l13.507,33.226c0.635,1.564,0.459,3.265-0.482,4.665c-0.943,1.398-2.45,2.201-4.137,2.201H172.842   c-1.689,0-3.196-0.802-4.139-2.202c-0.941-1.398-1.118-3.1-0.482-4.662l13.507-33.228c3.183-7.829,10.699-12.887,19.149-12.887   H215.833z M255.808,77.327c12.239,0,22.195-9.956,22.195-22.195s-9.956-22.195-22.195-22.195c-12.239,0-22.195,9.956-22.195,22.195   S243.569,77.327,255.808,77.327z M255.808,42.623c6.898,0,12.509,5.611,12.509,12.509s-5.611,12.509-12.509,12.509   c-6.898,0-12.509-5.611-12.509-12.509S248.911,42.623,255.808,42.623z M232.291,233.544h123.798c2.675,0,4.843,2.168,4.843,4.843   s-2.168,4.843-4.843,4.843H232.291c-2.675,0-4.843-2.168-4.843-4.843S229.615,233.544,232.291,233.544z M360.932,276.004   c0,2.675-2.168,4.843-4.843,4.843h-83.217c-2.675,0-4.843-2.168-4.843-4.843s2.168-4.843,4.843-4.843h83.217   C358.764,271.161,360.932,273.329,360.932,276.004z M151.068,246.973v20.447c0,8.63,7.021,15.651,15.651,15.651h20.473   c8.63,0,15.651-7.021,15.651-15.651v-20.447c0-8.63-7.021-15.651-15.651-15.651h-20.473   C158.089,231.322,151.068,238.343,151.068,246.973z M160.755,246.973c0-3.289,2.675-5.964,5.964-5.964h20.473   c3.289,0,5.964,2.675,5.964,5.964v20.447c0,3.289-2.675,5.964-5.964,5.964h-20.473c-3.289,0-5.964-2.675-5.964-5.964V246.973z    M165.032,261.834c-1.892-1.89-1.892-4.958,0-6.849c1.892-1.892,4.957-1.892,6.849,0l1.433,1.433l8.717-8.717   c1.892-1.892,4.957-1.892,6.849,0c1.892,1.89,1.892,4.958,0,6.849l-12.141,12.141c-0.946,0.946-2.185,1.419-3.424,1.419   c-1.239,0-2.478-0.473-3.424-1.419L165.032,261.834z M360.932,307.548c0,2.675-2.168,4.843-4.843,4.843H232.291   c-2.675,0-4.843-2.168-4.843-4.843c0-2.675,2.168-4.843,4.843-4.843h123.798C358.764,302.705,360.932,304.873,360.932,307.548z    M360.932,345.166c0,2.675-2.168,4.843-4.843,4.843h-83.217c-2.675,0-4.843-2.168-4.843-4.843c0-2.675,2.168-4.843,4.843-4.843   h83.217C358.764,340.322,360.932,342.49,360.932,345.166z M187.192,300.484h-20.473c-8.63,0-15.651,7.021-15.651,15.651v20.447   c0,8.63,7.021,15.651,15.651,15.651h20.473c8.63,0,15.651-7.021,15.651-15.651v-20.447   C202.843,307.504,195.823,300.484,187.192,300.484z M193.157,336.581c0,3.289-2.675,5.964-5.964,5.964h-20.473   c-3.289,0-5.964-2.675-5.964-5.964v-20.447c0-3.289,2.675-5.964,5.964-5.964h20.473c3.289,0,5.964,2.675,5.964,5.964V336.581z    M188.879,316.863c1.892,1.89,1.892,4.958,0,6.849l-12.141,12.141c-0.946,0.946-2.185,1.419-3.424,1.419   c-1.239,0-2.478-0.473-3.424-1.419l-4.857-4.857c-1.892-1.89-1.892-4.958,0-6.849c1.892-1.892,4.957-1.892,6.849,0l1.433,1.433   l8.717-8.717C183.923,314.971,186.988,314.971,188.879,316.863z M360.932,374.501c0,2.675-2.168,4.843-4.843,4.843H232.291   c-2.675,0-4.843-2.168-4.843-4.843s2.168-4.843,4.843-4.843h123.798C358.764,369.658,360.932,371.826,360.932,374.501z    M360.932,412.118c0,2.675-2.168,4.843-4.843,4.843h-83.217c-2.675,0-4.843-2.168-4.843-4.843s2.168-4.843,4.843-4.843h83.217   C358.764,407.275,360.932,409.443,360.932,412.118z M187.192,367.436h-20.473c-8.63,0-15.651,7.021-15.651,15.651v20.445   c0,8.63,7.021,15.652,15.651,15.652h20.473c8.63,0,15.651-7.022,15.651-15.652v-20.445   C202.843,374.457,195.823,367.436,187.192,367.436z M193.157,403.532c0,3.29-2.675,5.966-5.964,5.966h-20.473   c-3.289,0-5.964-2.675-5.964-5.966v-20.445c0-3.289,2.675-5.964,5.964-5.964h20.473c3.289,0,5.964,2.675,5.964,5.964V403.532z    M188.879,383.816c1.892,1.89,1.892,4.958,0,6.849l-12.141,12.141c-0.946,0.946-2.185,1.419-3.424,1.419   c-1.239,0-2.478-0.473-3.424-1.419l-4.857-4.857c-1.892-1.89-1.892-4.958,0-6.849c1.892-1.892,4.957-1.892,6.849,0l1.433,1.433   l8.717-8.717C183.923,381.924,186.988,381.924,188.879,383.816z M231.643,200.426h9.346v9.363c0,7.101,5.778,12.879,12.879,12.879   h4.265c7.101,0,12.879-5.778,12.879-12.879v-9.363h9.346c7.101,0,12.879-5.778,12.879-12.879v-4.263   c0-7.101-5.778-12.879-12.879-12.879h-9.346v-9.348c0-7.101-5.778-12.879-12.879-12.879h-4.265   c-7.101,0-12.879,5.778-12.879,12.879v9.348h-9.346c-7.101,0-12.879,5.778-12.879,12.879v4.263   C218.764,194.648,224.542,200.426,231.643,200.426z M228.45,183.284c0-1.761,1.432-3.193,3.193-3.193h14.189   c2.675,0,4.843-2.168,4.843-4.843v-14.191c0-1.761,1.432-3.193,3.193-3.193h4.265c1.761,0,3.193,1.432,3.193,3.193v14.191   c0,2.675,2.168,4.843,4.843,4.843h14.189c1.761,0,3.193,1.432,3.193,3.193v4.263c0,1.761-1.432,3.193-3.193,3.193h-14.189   c-2.675,0-4.843,2.168-4.843,4.843v14.207c0,1.761-1.432,3.193-3.193,3.193h-4.265c-1.761,0-3.193-1.432-3.193-3.193v-14.207   c0-2.675-2.168-4.843-4.843-4.843h-14.189c-1.761,0-3.193-1.432-3.193-3.193V183.284z"/></g><g id="Layer_1"/></svg>